<svg width="124" height="47" viewBox="0 0 124 47" fill="none" xmlns="http://www.w3.org/2000/svg">
<path d="M54.5817 18.3891C55.2564 14.3553 59.0733 11.6322 63.1071 12.3068L60.8292 25.9267C60.1546 29.9605 56.3376 32.6836 52.3039 32.009L54.5817 18.3891Z" fill="#2AA4FF"/>
<path d="M44.1352 18.1791C44.802 14.1925 48.5742 11.5013 52.5607 12.168L50.2686 25.8735C49.6018 29.86 45.8296 32.5513 41.8431 31.8845L44.1352 18.1791Z" fill="#2AA4FF"/>
<path d="M57.376 9.72939C58.0236 5.85764 61.6872 3.24389 65.5589 3.89143L66.5661 4.05987C65.9185 7.93162 62.2549 10.5454 58.3832 9.89784L57.376 9.72939Z" fill="#F3965D"/>
<path d="M90.4021 18.3891C91.0767 14.3553 94.8936 11.6322 98.9274 12.3068L96.6495 25.9267C95.9749 29.9605 92.158 32.6836 88.1242 32.009L90.4021 18.3891Z" fill="#2AA4FF"/>
<path d="M93.1963 9.72939C93.8439 5.85764 97.5075 3.24389 101.379 3.89143L102.386 4.05987C101.739 7.93162 98.0752 10.5454 94.2035 9.89784L93.1963 9.72939Z" fill="#F3965D"/>
<path d="M64.8429 19.7842C65.4481 15.961 69.0287 13.4077 72.8405 14.0812L68.8604 39.2246C68.2552 43.0478 64.6745 45.6011 60.8628 44.9275L64.8429 19.7842Z" fill="#2AA4FF"/>
<path d="M3.75124 19.7927C4.48074 15.4309 8.60807 12.4863 12.9699 13.2158L9.21866 35.6452C8.48916 40.007 4.36183 42.9516 1.07026e-06 42.2221L3.75124 19.7927Z" fill="#2AA4FF"/>
<path d="M3.75124 19.7927C4.48074 15.4309 8.60807 12.4863 12.9699 13.2158L9.21866 35.6452C8.48916 40.007 4.36183 42.9516 1.07026e-06 42.2221L3.75124 19.7927Z" fill="#2AA4FF"/>
<path d="M20.9399 9.88364C21.6895 5.40147 25.9307 2.37566 30.4129 3.12528L26.6981 25.3368C25.9485 29.819 21.7073 32.8448 17.2251 32.0952L20.9399 9.88364Z" fill="#2AA4FF"/>
<path d="M20.9399 9.88364C21.6895 5.40147 25.9307 2.37566 30.4129 3.12528L26.6981 25.3368C25.9485 29.819 21.7073 32.8448 17.2251 32.0952L20.9399 9.88364Z" fill="#2AA4FF"/>
<rect x="8.03249" y="20.7876" width="13.9477" height="6.65687" fill="#2AA4FF"/>
<rect x="8.03249" y="20.7876" width="13.9477" height="6.65687" fill="#2AA4FF"/>
<mask id="mask0_6_6819" style="mask-type:alpha" maskUnits="userSpaceOnUse" x="0" y="1" width="28" height="37">
<path d="M3.49355 16.2028C4.10843 12.5263 7.58728 10.0444 11.2638 10.6593L7.77024 31.5479C7.15535 35.2244 3.6765 37.7063 1.50025e-06 37.0914L3.49355 16.2028Z" fill="#F39D68"/>
<path d="M3.49355 16.2028C4.10843 12.5263 7.58728 10.0444 11.2638 10.6593L7.77024 31.5479C7.15535 35.2244 3.6765 37.7063 1.50025e-06 37.0914L3.49355 16.2028Z" fill="#F39D68"/>
<path d="M19.5377 7.08794C20.1462 3.44952 23.5891 0.993297 27.2275 1.60181L23.7624 22.3205C23.1538 25.9589 19.711 28.4152 16.0726 27.8067L19.5377 7.08794Z" fill="#F39D68"/>
<path d="M19.5377 7.08794C20.1462 3.44952 23.5891 0.993297 27.2275 1.60181L23.7624 22.3205C23.1538 25.9589 19.711 28.4152 16.0726 27.8067L19.5377 7.08794Z" fill="#F39D68"/>
<rect x="8.15047" y="17.7961" width="11.7563" height="5.61095" fill="#F39D68"/>
<rect x="8.15047" y="17.7961" width="11.7563" height="5.61095" fill="#F39D68"/>
</mask>
<g mask="url(#mask0_6_6819)">
<rect x="-29.4805" y="-10.2778" width="63.7158" height="67.2027" fill="url(#paint0_linear_6_6819)"/>
</g>
<path d="M119.305 29.1793C118.105 30.0901 116.739 30.738 115.287 31.0861C113.834 31.4341 112.323 31.4755 110.84 31.2078C109.356 30.9401 107.929 30.3686 106.64 29.526C105.352 28.6833 104.226 27.586 103.329 26.2967C102.431 25.0073 101.779 23.5512 101.408 22.0115C101.038 20.4718 100.958 18.8786 101.172 17.3229C101.386 15.7672 101.89 14.2794 102.656 12.9446C103.915 10.7492 106.788 11.2022 108.213 13.2489L109.524 15.1308C109.006 15.5232 108.57 16.0212 108.241 16.5964C107.911 17.1716 107.694 17.8126 107.601 18.4829C107.509 19.1533 107.544 19.8397 107.703 20.5032C107.863 21.1666 108.144 21.794 108.531 22.3496C108.917 22.9051 109.402 23.378 109.958 23.741C110.513 24.1041 111.128 24.3504 111.767 24.4657C112.406 24.5811 113.057 24.5632 113.683 24.4133C114.309 24.2633 114.897 23.9841 115.415 23.5917L119.305 29.1793Z" fill="#2AA4FF"/>
<path d="M65.5042 15.9494C66.2365 14.2122 67.4391 12.7337 68.9888 11.6652C70.5386 10.5968 72.3798 9.97678 74.3239 9.86873C76.2681 9.76069 78.2453 10.1685 80.0533 11.0503C81.8612 11.9321 83.4348 13.2564 84.613 14.8874C85.7912 16.5184 86.5317 18.3977 86.7586 20.3327C86.9855 22.2677 86.6907 24.189 85.9043 25.8999C85.118 27.6107 83.8684 29.0497 82.2834 30.0694C79.5892 31.8028 76.6196 29.113 76.282 25.8078L76.2491 25.4862C77.0898 25.4646 77.8926 25.2216 78.5756 24.7822C79.2585 24.3429 79.7969 23.7228 80.1357 22.9857C80.4746 22.2485 80.6016 21.4206 80.5038 20.5868C80.4061 19.7531 80.087 18.9433 79.5793 18.2406C79.0717 17.5378 78.3936 16.9672 77.6146 16.5872C76.8356 16.2072 75.9836 16.0315 75.1459 16.0781C74.3082 16.1247 73.5149 16.3918 72.8471 16.8522C72.1794 17.3125 71.6612 17.9496 71.3456 18.6981L65.5042 15.9494Z" fill="#2AA4FF"/>
<path d="M47.4452 27.2812C46.3113 28.5795 44.8432 29.5184 43.1913 30.0016C41.5394 30.4849 39.7631 30.4953 38.0441 30.0316C36.3252 29.568 34.7254 28.647 33.4085 27.3629C32.0917 26.0789 31.1051 24.478 30.5499 22.724C29.9946 20.9701 29.8905 19.1261 30.2484 17.381C30.6062 15.6359 31.4131 14.0523 32.5864 12.7924C33.7597 11.5324 35.2572 10.6414 36.9257 10.2105C37.6263 10.0296 38.3465 9.93252 39.0727 9.91897C40.7801 9.88714 41.7824 11.6976 41.4002 13.4296L41.3538 13.6402C41.0803 14.8793 39.8138 15.5582 38.629 15.8642C37.91 16.0498 37.2648 16.4338 36.7592 16.9766C36.2537 17.5195 35.906 18.2019 35.7518 18.9538C35.5976 19.7058 35.6425 20.5003 35.8817 21.256C36.121 22.0118 36.5461 22.7016 37.1135 23.2549C37.6809 23.8081 38.3702 24.205 39.1109 24.4048C39.8516 24.6045 40.617 24.6001 41.3287 24.3918C42.0405 24.1836 42.6731 23.7791 43.1617 23.2196L47.4452 27.2812Z" fill="#2AA4FF"/>
<path d="M116.002 19.8193C116.608 15.9961 120.188 13.4428 124 14.1164L120.02 39.2598C119.415 43.0829 115.834 45.6362 112.022 44.9627L116.002 19.8193Z" fill="#2AA4FF"/>
<defs>
<linearGradient id="paint0_linear_6_6819" x1="2.37739" y1="-10.2778" x2="2.37739" y2="56.9249" gradientUnits="userSpaceOnUse">
<stop stop-color="#F39D68"/>
<stop offset="1" stop-color="#F18D4F"/>
</linearGradient>
</defs>
</svg>
