<svg width="88" height="24" viewBox="0 0 88 24" fill="none" xmlns="http://www.w3.org/2000/svg">
<path d="M4.75953 0.925116V23.5H0.231615V0.925116H4.75953ZM19.1622 5.32366C21.2968 5.32366 23.0217 6.00285 24.3369 7.36122C25.6522 8.69803 26.3098 10.5739 26.3098 12.9888V23.5H21.7819V13.6033C21.7819 12.1802 21.4261 11.0914 20.7146 10.3367C20.0031 9.56049 19.0328 9.17239 17.8038 9.17239C16.5532 9.17239 15.5614 9.56049 14.8283 10.3367C14.1168 11.0914 13.761 12.1802 13.761 13.6033V23.5H9.23312V5.5824H13.761V7.81401C14.3648 7.0378 15.1302 6.43408 16.0573 6.00285C17.006 5.55006 18.041 5.32366 19.1622 5.32366ZM38.0867 19.3279L42.6146 5.5824H47.4336L40.8034 23.5H35.3053L28.7074 5.5824H33.5588L38.0867 19.3279ZM55.2485 9.30176V17.9695C55.2485 18.5732 55.3887 19.0152 55.669 19.2955C55.9709 19.5542 56.4668 19.6836 57.1567 19.6836H59.259V23.5H56.4129C52.5965 23.5 50.6883 21.6457 50.6883 17.9371V9.30176H48.5537V5.5824H50.6883V1.15151H55.2485V5.5824H59.259V9.30176H55.2485ZM79.1719 14.1531C79.1719 14.7999 79.1288 15.3821 79.0426 15.8996H65.944C66.0518 17.1933 66.5046 18.2067 67.3023 18.9397C68.1001 19.6728 69.0812 20.0394 70.2455 20.0394C71.9273 20.0394 73.1239 19.3171 73.8355 17.8725H78.7192C78.2017 19.5974 77.2098 21.0204 75.7437 22.1416C74.2775 23.2413 72.4771 23.7911 70.3425 23.7911C68.6176 23.7911 67.0652 23.4138 65.6852 22.6591C64.3269 21.8829 63.2596 20.794 62.4833 19.3925C61.7287 17.991 61.3514 16.3739 61.3514 14.5412C61.3514 12.6869 61.7287 11.059 62.4833 9.65752C63.238 8.25602 64.2945 7.17795 65.6529 6.4233C67.0113 5.66864 68.5745 5.29132 70.3425 5.29132C72.0459 5.29132 73.566 5.65786 74.9028 6.39095C76.2611 7.12404 77.3069 8.16978 78.04 9.52815C78.7946 10.865 79.1719 12.4066 79.1719 14.1531ZM74.4823 12.8594C74.4608 11.6951 74.0403 10.7679 73.221 10.078C72.4016 9.36644 71.399 9.01068 70.2131 9.01068C69.0919 9.01068 68.1432 9.35566 67.367 10.0456C66.6124 10.714 66.1488 11.652 65.9763 12.8594H74.4823ZM84.4821 23.7264C83.6628 23.7264 82.9836 23.4784 82.4446 22.9825C81.9271 22.465 81.6684 21.829 81.6684 21.0743C81.6684 20.3197 81.9271 19.6944 82.4446 19.1985C82.9836 18.681 83.6628 18.4223 84.4821 18.4223C85.2799 18.4223 85.9375 18.681 86.455 19.1985C86.9725 19.6944 87.2312 20.3197 87.2312 21.0743C87.2312 21.829 86.9725 22.465 86.455 22.9825C85.9375 23.4784 85.2799 23.7264 84.4821 23.7264Z" fill="url(#paint0_linear_6_7023)"/>
<defs>
<linearGradient id="paint0_linear_6_7023" x1="43.5" y1="-12.5" x2="43.5" y2="36.5" gradientUnits="userSpaceOnUse">
<stop stop-color="#FF7CE2"/>
<stop offset="0.52" stop-color="#EF6DAB"/>
<stop offset="1" stop-color="#755FFA"/>
</linearGradient>
</defs>
</svg>
