<svg width="185" height="52" viewBox="0 0 185 52" fill="none" xmlns="http://www.w3.org/2000/svg">
<rect x="104.224" y="15.2503" width="45.0452" height="22.4878" rx="10.6032" stroke="white" stroke-width="0.83546"/>
<path d="M174.458 18.4484C176.683 18.4484 178.472 19.1356 179.824 20.5099C181.199 21.8625 181.886 23.7604 181.886 26.2037V36.8386H177.305V26.8254C177.305 25.4074 176.945 24.3276 176.225 23.5859C175.505 22.8223 174.523 22.4406 173.28 22.4406C172.036 22.4406 171.044 22.8223 170.302 23.5859C169.582 24.3276 169.222 25.4074 169.222 26.8254V36.8386H164.641V26.8254C164.641 25.4074 164.281 24.3276 163.561 23.5859C162.841 22.8223 161.86 22.4406 160.616 22.4406C159.351 22.4406 158.347 22.8223 157.606 23.5859C156.886 24.3276 156.526 25.4074 156.526 26.8254V36.8386H151.945V18.7102H156.526V20.9026C157.115 20.1391 157.867 19.5392 158.784 19.1028C159.722 18.6665 160.747 18.4484 161.86 18.4484C163.278 18.4484 164.543 18.7538 165.655 19.3646C166.768 19.9536 167.63 20.8044 168.24 21.917C168.83 20.8699 169.68 20.03 170.793 19.3974C171.927 18.7647 173.149 18.4484 174.458 18.4484Z" fill="white"/>
<path d="M94.4233 34.5292H101.95V38.1614H89.8421V15.3209H94.4233V34.5292Z" fill="white"/>
<rect x="105.883" y="16.9074" width="19.144" height="19.144" rx="9.57202" stroke="white" stroke-width="1.6013"/>
<path d="M112.648 26.4942C112.648 24.9754 113.879 23.7442 115.398 23.7442H115.468C116.986 23.7442 118.218 24.9754 118.218 26.4942C118.218 28.013 116.986 29.2443 115.468 29.2443H115.398C113.879 29.2443 112.648 28.013 112.648 26.4942Z" fill="white"/>
<rect x="128.208" y="16.9074" width="19.144" height="19.144" rx="9.57202" stroke="#FB9600" stroke-width="1.6013"/>
<path d="M134.974 26.4942C134.974 24.9754 136.205 23.7442 137.724 23.7442H137.793C139.312 23.7442 140.544 24.9754 140.544 26.4942C140.544 28.013 139.312 29.2443 137.793 29.2443H137.724C136.205 29.2443 134.974 28.013 134.974 26.4942Z" fill="#FB9600"/>
<path d="M6.743 33.0232H14.1635V36.6044H2.22618V14.0848H6.743V33.0232ZM19.3251 16.6014C18.5293 16.6014 17.8625 16.354 17.3248 15.8593C16.8086 15.3431 16.5505 14.7086 16.5505 13.9558C16.5505 13.203 16.8086 12.5792 17.3248 12.0845C17.8625 11.5683 18.5293 11.3102 19.3251 11.3102C20.1209 11.3102 20.7769 11.5683 21.2931 12.0845C21.8308 12.5792 22.0997 13.203 22.0997 13.9558C22.0997 14.7086 21.8308 15.3431 21.2931 15.8593C20.7769 16.354 20.1209 16.6014 19.3251 16.6014ZM21.5512 18.7307V36.6044H17.0344V18.7307H21.5512ZM35.9186 18.4726C38.048 18.4726 39.7687 19.1501 41.0807 20.5052C42.3927 21.8387 43.0487 23.71 43.0487 26.1189V36.6044H38.5319V26.7319C38.5319 25.3124 38.177 24.2262 37.4672 23.4734C36.7574 22.6991 35.7896 22.3119 34.5636 22.3119C33.3161 22.3119 32.3267 22.6991 31.5954 23.4734C30.8856 24.2262 30.5307 25.3124 30.5307 26.7319V36.6044H26.0139V18.7307H30.5307V20.9569C31.1329 20.1826 31.8965 19.5803 32.8214 19.1501C33.7677 18.6985 34.8002 18.4726 35.9186 18.4726ZM54.3451 18.4403C55.6786 18.4403 56.8508 18.7092 57.8617 19.2469C58.8727 19.7631 59.6685 20.4407 60.2492 21.2795V18.7307H64.7983V36.7335C64.7983 38.3897 64.4649 39.863 63.7981 41.1535C63.1314 42.4655 62.1312 43.498 60.7977 44.2508C59.4641 45.0251 57.851 45.4122 55.9582 45.4122C53.4202 45.4122 51.3339 44.8207 49.6992 43.6378C48.086 42.4548 47.1719 40.8416 46.9568 38.7983H51.4414C51.678 39.6156 52.1835 40.2609 52.9578 40.7341C53.7536 41.2288 54.7107 41.4761 55.8292 41.4761C57.1412 41.4761 58.2059 41.0782 59.0232 40.2824C59.8405 39.5081 60.2492 38.3251 60.2492 36.7335V33.9589C59.6685 34.7977 58.8619 35.4967 57.8295 36.056C56.8186 36.6152 55.6571 36.8948 54.3451 36.8948C52.8395 36.8948 51.4629 36.5076 50.2154 35.7333C48.9679 34.959 47.9785 33.8728 47.2472 32.4748C46.5374 31.0552 46.1825 29.4313 46.1825 27.603C46.1825 25.7963 46.5374 24.1939 47.2472 22.7959C47.9785 21.3978 48.9572 20.3224 50.1831 19.5696C51.4306 18.8168 52.818 18.4403 54.3451 18.4403ZM60.2492 27.6676C60.2492 26.5706 60.0341 25.635 59.6039 24.8607C59.1738 24.0649 58.593 23.4626 57.8617 23.054C57.1305 22.6238 56.3454 22.4087 55.5065 22.4087C54.6677 22.4087 53.8934 22.613 53.1836 23.0217C52.4738 23.4304 51.8931 24.0326 51.4414 24.8284C51.0112 25.6027 50.7961 26.5276 50.7961 27.603C50.7961 28.6785 51.0112 29.6249 51.4414 30.4422C51.8931 31.238 52.4738 31.851 53.1836 32.2812C53.9149 32.7114 54.6892 32.9264 55.5065 32.9264C56.3454 32.9264 57.1305 32.7221 57.8617 32.3134C58.593 31.8833 59.1738 31.281 59.6039 30.5067C60.0341 29.7109 60.2492 28.7645 60.2492 27.6676ZM77.1465 36.8948C75.4258 36.8948 73.8771 36.5184 72.5006 35.7656C71.124 34.9913 70.0378 33.9051 69.242 32.507C68.4677 31.109 68.0806 29.4958 68.0806 27.6676C68.0806 25.8393 68.4785 24.2262 69.2743 22.8281C70.0916 21.4301 71.1993 20.3546 72.5974 19.6018C73.9954 18.8275 75.5548 18.4403 77.2755 18.4403C78.9962 18.4403 80.5556 18.8275 81.9537 19.6018C83.3517 20.3546 84.4487 21.4301 85.2445 22.8281C86.0618 24.2262 86.4705 25.8393 86.4705 27.6676C86.4705 29.4958 86.0511 31.109 85.2122 32.507C84.3949 33.9051 83.2764 34.9913 81.8569 35.7656C80.4588 36.5184 78.8887 36.8948 77.1465 36.8948ZM77.1465 32.9587C77.9638 32.9587 78.7274 32.7651 79.4371 32.378C80.1684 31.9693 80.7492 31.3671 81.1793 30.5712C81.6095 29.7754 81.8246 28.8075 81.8246 27.6676C81.8246 25.9684 81.3729 24.6671 80.4696 23.7637C79.5877 22.8389 78.5015 22.3764 77.211 22.3764C75.9205 22.3764 74.8343 22.8389 73.9524 23.7637C73.0921 24.6671 72.6619 25.9684 72.6619 27.6676C72.6619 29.3668 73.0813 30.6788 73.9202 31.6037C74.7805 32.507 75.8559 32.9587 77.1465 32.9587Z" fill="white"/>
</svg>
