<svg width="88" height="28" viewBox="0 0 88 28" fill="none" xmlns="http://www.w3.org/2000/svg">
<path d="M25.6834 3.56458V27H20.9829V11.7569L14.7043 27H11.1454L4.83325 11.7569V27H0.132738V3.56458H5.47118L12.9249 20.9901L20.3785 3.56458H25.6834ZM32.7145 6.18344C31.8863 6.18344 31.1924 5.92603 30.6328 5.41121C30.0956 4.87401 29.827 4.21369 29.827 3.43028C29.827 2.64686 30.0956 1.99774 30.6328 1.48292C31.1924 0.945718 31.8863 0.677117 32.7145 0.677117C33.5427 0.677117 34.2254 0.945718 34.7626 1.48292C35.3222 1.99774 35.6019 2.64686 35.6019 3.43028C35.6019 4.21369 35.3222 4.87401 34.7626 5.41121C34.2254 5.92603 33.5427 6.18344 32.7145 6.18344ZM35.0312 8.39939V27H30.3307V8.39939H35.0312ZM49.9828 8.13079C52.1988 8.13079 53.9895 8.83587 55.3549 10.246C56.7203 11.6338 57.4029 13.5811 57.4029 16.0881V27H52.7024V16.726C52.7024 15.2487 52.3331 14.1184 51.5945 13.3349C50.8558 12.5291 49.8485 12.1262 48.5727 12.1262C47.2745 12.1262 46.2448 12.5291 45.4838 13.3349C44.7451 14.1184 44.3758 15.2487 44.3758 16.726V27H39.6753V8.39939H44.3758V10.7161C45.0025 9.91027 45.7972 9.28354 46.7596 8.83587C47.7445 8.36582 48.8189 8.13079 49.9828 8.13079ZM79.1641 17.2968C79.1641 17.9683 79.1193 18.5726 79.0298 19.1099H65.4319C65.5438 20.4529 66.0138 21.5049 66.842 22.2659C67.6702 23.0269 68.6886 23.4075 69.8973 23.4075C71.6433 23.4075 72.8855 22.6576 73.6242 21.1579H78.694C78.1568 22.9486 77.1272 24.4259 75.6051 25.5898C74.083 26.7314 72.214 27.3022 69.9981 27.3022C68.2074 27.3022 66.5958 26.9105 65.1633 26.127C63.7531 25.3212 62.6451 24.1909 61.8393 22.736C61.0559 21.281 60.6642 19.6023 60.6642 17.6997C60.6642 15.7747 61.0559 14.0848 61.8393 12.6299C62.6227 11.1749 63.7195 10.0558 65.1297 9.27235C66.5398 8.48893 68.1626 8.09722 69.9981 8.09722C71.7664 8.09722 73.3444 8.47773 74.7322 9.23877C76.1423 9.9998 77.2279 11.0854 77.9889 12.4956C78.7724 13.8833 79.1641 15.4837 79.1641 17.2968ZM74.2957 15.9538C74.2733 14.7451 73.8368 13.7826 72.9863 13.0663C72.1357 12.3277 71.0949 11.9584 69.8638 11.9584C68.6998 11.9584 67.715 12.3165 66.9092 13.0328C66.1257 13.7266 65.6445 14.7003 65.4654 15.9538H74.2957ZM84.6767 27.235C83.8261 27.235 83.121 26.9776 82.5615 26.4628C82.0242 25.9256 81.7556 25.2653 81.7556 24.4819C81.7556 23.6984 82.0242 23.0493 82.5615 22.5345C83.121 21.9973 83.8261 21.7287 84.6767 21.7287C85.5049 21.7287 86.1876 21.9973 86.7248 22.5345C87.262 23.0493 87.5306 23.6984 87.5306 24.4819C87.5306 25.2653 87.262 25.9256 86.7248 26.4628C86.1876 26.9776 85.5049 27.235 84.6767 27.235Z" fill="url(#paint0_linear_6_7025)"/>
<defs>
<linearGradient id="paint0_linear_6_7025" x1="43" y1="-10" x2="43" y2="40" gradientUnits="userSpaceOnUse">
<stop stop-color="#FF7325"/>
<stop offset="0.515" stop-color="#FD5C66"/>
<stop offset="1" stop-color="#892AE7"/>
</linearGradient>
</defs>
</svg>
