<svg width="120" height="38" viewBox="0 0 120 38" fill="none" xmlns="http://www.w3.org/2000/svg">
<path d="M10.634 28.2627C8.80762 28.2627 7.15633 27.95 5.68019 27.3245C4.22906 26.699 3.07817 25.7983 2.22751 24.6224C1.37685 23.4465 0.939006 22.0579 0.913986 20.4566H6.54336C6.61842 21.5325 6.99371 22.3831 7.66923 23.0086C8.36978 23.6341 9.32051 23.9469 10.5214 23.9469C11.7474 23.9469 12.7106 23.6591 13.4112 23.0837C14.1117 22.4832 14.462 21.7076 14.462 20.7569C14.462 19.9813 14.2243 19.3433 13.749 18.8429C13.2736 18.3425 12.6731 17.9547 11.9476 17.6795C11.247 17.3793 10.2713 17.054 9.02028 16.7037C7.31896 16.2033 5.93038 15.7155 4.85455 15.2401C3.80373 14.7397 2.89052 14.0016 2.11492 13.0259C1.36434 12.0251 0.989045 10.6991 0.989045 9.04778C0.989045 7.49658 1.37685 6.14553 2.15245 4.99463C2.92805 3.84374 4.0164 2.96806 5.41748 2.36759C6.81857 1.74211 8.41982 1.42937 10.2212 1.42937C12.9233 1.42937 15.1125 2.09238 16.7888 3.41841C18.4901 4.71942 19.4284 6.54584 19.6035 8.89767H13.824C13.774 7.99697 13.3862 7.25889 12.6606 6.68345C11.9601 6.08298 11.0218 5.78275 9.84592 5.78275C8.82013 5.78275 7.99449 6.04545 7.369 6.57086C6.76853 7.09627 6.4683 7.85936 6.4683 8.86013C6.4683 9.56068 6.69348 10.1486 7.14382 10.624C7.61919 11.0744 8.19464 11.4496 8.87017 11.7499C9.57071 12.0251 10.5465 12.3503 11.7974 12.7256C13.4988 13.226 14.8873 13.7264 15.9632 14.2268C17.039 14.7272 17.9647 15.4778 18.7403 16.4786C19.5159 17.4793 19.9037 18.7928 19.9037 20.4191C19.9037 21.8202 19.541 23.1212 18.8154 24.3221C18.0898 25.5231 17.0265 26.4863 15.6254 27.2119C14.2243 27.9124 12.5605 28.2627 10.634 28.2627ZM36.1679 6.90862C37.7442 6.90862 39.1452 7.25889 40.3712 7.95944C41.5971 8.63496 42.5479 9.64825 43.2234 10.9993C43.9239 12.3253 44.2742 13.9266 44.2742 15.803V28H39.0201V16.5161C39.0201 14.8648 38.6073 13.6013 37.7817 12.7256C36.956 11.8249 35.8302 11.3746 34.4041 11.3746C32.9529 11.3746 31.802 11.8249 30.9514 12.7256C30.1257 13.6013 29.7129 14.8648 29.7129 16.5161V28H24.4588V0.228433H29.7129V9.79836C30.3884 8.89766 31.2891 8.19712 32.415 7.69673C33.5409 7.17132 34.7919 6.90862 36.1679 6.90862ZM58.5027 28.3378C56.5012 28.3378 54.6998 27.8999 53.0986 27.0242C51.4973 26.1235 50.2338 24.8601 49.3081 23.2338C48.4074 21.6075 47.9571 19.7311 47.9571 17.6044C47.9571 15.4778 48.4199 13.6013 49.3456 11.9751C50.2964 10.3488 51.5849 9.09782 53.2111 8.22214C54.8374 7.32144 56.6513 6.87109 58.6529 6.87109C60.6544 6.87109 62.4683 7.32144 64.0946 8.22214C65.7209 9.09782 66.9968 10.3488 67.9226 11.9751C68.8733 13.6013 69.3487 15.4778 69.3487 17.6044C69.3487 19.7311 68.8608 21.6075 67.885 23.2338C66.9343 24.8601 65.6333 26.1235 63.982 27.0242C62.3557 27.8999 60.5293 28.3378 58.5027 28.3378ZM58.5027 23.7592C59.4535 23.7592 60.3417 23.534 61.1673 23.0837C62.018 22.6083 62.6935 21.9078 63.1939 20.982C63.6943 20.0563 63.9445 18.9305 63.9445 17.6044C63.9445 15.6279 63.4191 14.1142 62.3683 13.0634C61.3425 11.9876 60.079 11.4496 58.5778 11.4496C57.0766 11.4496 55.8132 11.9876 54.7874 13.0634C53.7866 14.1142 53.2862 15.6279 53.2862 17.6044C53.2862 19.581 53.7741 21.1071 54.7498 22.183C55.7506 23.2338 57.0016 23.7592 58.5027 23.7592ZM78.4568 10.2112C79.1323 9.26045 80.0581 8.47233 81.234 7.84685C82.4349 7.19634 83.7985 6.87109 85.3247 6.87109C87.101 6.87109 88.7023 7.30893 90.1284 8.18461C91.5795 9.06029 92.7179 10.3113 93.5435 11.9375C94.3942 13.5388 94.8195 15.4027 94.8195 17.5294C94.8195 19.656 94.3942 21.545 93.5435 23.1963C92.7179 24.8225 91.5795 26.086 90.1284 26.9867C88.7023 27.8874 87.101 28.3378 85.3247 28.3378C83.7985 28.3378 82.4474 28.025 81.2715 27.3995C80.1206 26.774 79.1824 25.9859 78.4568 25.0352V37.9077H73.2027V7.20885H78.4568V10.2112ZM89.4529 17.5294C89.4529 16.2784 89.1902 15.2026 88.6647 14.3019C88.1644 13.3761 87.4888 12.6756 86.6382 12.2002C85.8125 11.7249 84.9118 11.4872 83.9361 11.4872C82.9853 11.4872 82.0846 11.7374 81.234 12.2378C80.4083 12.7131 79.7328 13.4137 79.2074 14.3394C78.707 15.2651 78.4568 16.3535 78.4568 17.6044C78.4568 18.8554 78.707 19.9437 79.2074 20.8695C79.7328 21.7952 80.4083 22.5082 81.234 23.0086C82.0846 23.484 82.9853 23.7217 83.9361 23.7217C84.9118 23.7217 85.8125 23.4715 86.6382 22.9711C87.4888 22.4707 88.1644 21.7577 88.6647 20.8319C89.1902 19.9062 89.4529 18.8054 89.4529 17.5294ZM103.892 10.4364C104.567 9.3355 105.443 8.47233 106.519 7.84685C107.62 7.22136 108.87 6.90862 110.272 6.90862V12.4254H108.883C107.232 12.4254 105.981 12.8132 105.13 13.5888C104.304 14.3644 103.892 15.7155 103.892 17.642V28H98.6375V7.20885H103.892V10.4364ZM116.137 28.2627C115.187 28.2627 114.398 27.975 113.773 27.3995C113.172 26.7991 112.872 26.061 112.872 25.1853C112.872 24.3096 113.172 23.5841 113.773 23.0086C114.398 22.4082 115.187 22.1079 116.137 22.1079C117.063 22.1079 117.826 22.4082 118.427 23.0086C119.027 23.5841 119.327 24.3096 119.327 25.1853C119.327 26.061 119.027 26.7991 118.427 27.3995C117.826 27.975 117.063 28.2627 116.137 28.2627Z" fill="#FB9600"/>
</svg>
