<svg width="68" height="68" viewBox="0 0 68 68" fill="none" xmlns="http://www.w3.org/2000/svg">
<path fill-rule="evenodd" clip-rule="evenodd" d="M7.19128 17.0689C7.25053 20.0669 5.61918 24.1196 3.49803 26.2368C2.52249 27.2118 1.74863 28.3695 1.22064 29.6437C0.692654 30.9178 0.420898 32.2836 0.420898 33.6628C0.420898 35.0421 0.692654 36.4078 1.22064 37.682C1.74863 38.9561 2.52249 40.1138 3.49803 41.0888C5.59153 43.1744 7.13203 46.7926 7.19128 49.7472C7.24658 52.3621 8.26963 54.9612 10.2644 56.952C12.1043 58.7968 14.5665 59.8884 17.169 60.0133C20.2934 60.1713 24.3856 61.9883 26.5976 64.2003C27.5726 65.1752 28.73 65.9486 30.0038 66.4762C31.2776 67.0038 32.6429 67.2754 34.0217 67.2754C35.4004 67.2754 36.7657 67.0038 38.0395 66.4762C39.3133 65.9486 40.4707 65.1752 41.4457 64.2003C43.6577 61.9883 47.7499 60.1713 50.8743 60.0133C53.4768 59.8884 55.939 58.7968 57.7789 56.952C59.6975 55.036 60.7978 52.4503 60.8481 49.7393C60.9073 46.7926 62.4281 43.1981 64.5176 41.1125C66.4934 39.143 67.6058 36.4693 67.6103 33.6796C67.6147 30.8898 66.5108 28.2126 64.5413 26.2368C62.4241 24.1236 60.7888 20.0669 60.852 17.0728C60.8818 15.6592 60.6248 14.2542 60.0966 12.9425C59.5685 11.6309 58.78 10.4399 57.7789 9.44141C56.7412 8.40135 55.4963 7.59128 54.125 7.06387C52.7538 6.53646 51.2869 6.30351 49.8197 6.38016C46.9994 6.52236 43.4404 5.15566 41.4457 3.15697C40.4707 2.18143 39.313 1.40756 38.0388 0.879576C36.7646 0.35159 35.3989 0.079834 34.0197 0.079834C32.6404 0.079834 31.2747 0.35159 30.0005 0.879576C28.7264 1.40756 27.5687 2.18143 26.5937 3.15697C24.6029 5.15171 21.04 6.52236 18.2197 6.38016C16.7531 6.30407 15.287 6.5373 13.9164 7.06469C12.5459 7.59209 11.3016 8.40186 10.2644 9.44141C9.26376 10.4395 8.47561 11.6298 7.94745 12.9407C7.4193 14.2516 7.16207 15.6559 7.19128 17.0689ZM46.0119 20.3316C46.4656 20.5833 46.8652 20.922 47.188 21.3282C47.5108 21.7345 47.7504 22.2004 47.8931 22.6992C48.0358 23.1981 48.0788 23.7202 48.0196 24.2357C47.9605 24.7512 47.8004 25.25 47.5484 25.7036L36.6148 45.3825C36.3294 45.9169 35.9271 46.38 35.4377 46.7373C34.7238 47.253 33.8581 47.5156 32.9779 47.4834C32.0978 47.4512 31.2536 47.1261 30.5792 46.5596L19.6812 37.8419C19.2761 37.5177 18.9388 37.1169 18.6885 36.6623C18.4383 36.2078 18.2801 35.7084 18.2229 35.1927C18.1656 34.677 18.2106 34.155 18.3551 33.6567C18.4995 33.1583 18.7408 32.6933 19.065 32.2882C19.3892 31.8831 19.79 31.5458 20.2446 31.2956C20.6991 31.0454 21.1985 30.8871 21.7142 30.8299C22.2299 30.7727 22.7518 30.8176 23.2502 30.9621C23.7485 31.1066 24.2136 31.3478 24.6187 31.672L31.938 37.5299L40.6399 21.8642C40.892 21.4108 41.2309 21.0115 41.6373 20.6891C42.0437 20.3667 42.5096 20.1275 43.0084 19.9852C43.5073 19.8429 44.0293 19.8002 44.5446 19.8597C45.0599 19.9191 45.5585 20.0794 46.0119 20.3316Z" fill="#53B86F"/>
</svg>
